<svg width="226" height="44" viewBox="0 0 226 44" fill="none" xmlns="http://www.w3.org/2000/svg">
<g clip-path="url(#clip0_817_5)">
<path d="M223.368 27.3064V14.0477H225.868V35.5088H223.368V31.9476H223.172C222.673 33.0427 221.87 33.9618 220.778 34.6875C219.685 35.4219 218.351 35.7891 216.773 35.7891C215.398 35.7891 214.182 35.4871 213.116 34.8852C212.05 34.2877 211.214 33.4034 210.603 32.2365C209.999 31.0763 209.696 29.6465 209.696 27.9474V14.0477H212.19V27.7974C212.19 29.477 212.684 30.8199 213.677 31.8433C214.664 32.8602 215.94 33.3708 217.485 33.3708C218.459 33.3708 219.394 33.1404 220.294 32.6689C221.188 32.204 221.926 31.5217 222.505 30.6221C223.079 29.7247 223.368 28.6231 223.368 27.3064ZM186.521 35.5088V14.0477H188.941V17.3461H189.125C189.552 16.264 190.302 15.3927 191.374 14.73C192.447 14.0608 193.656 13.7262 195.012 13.7262C195.215 13.7262 195.446 13.7327 195.696 13.7392C195.953 13.7522 196.163 13.7587 196.327 13.7718V16.2966C196.215 16.2771 196.018 16.251 195.742 16.2184C195.459 16.1793 195.157 16.1597 194.829 16.1597C193.71 16.1597 192.711 16.3966 191.836 16.8681C190.969 17.3331 190.278 17.9827 189.77 18.8149C189.263 19.6406 189.015 20.5858 189.015 21.6483V35.511H186.521V35.5088ZM161.803 33.7184C163.131 33.7184 164.277 33.4294 165.251 32.8406C166.224 32.2561 166.973 31.4761 167.5 30.5005C168.027 29.5292 168.29 28.4536 168.29 27.2803V24.1797C168.107 24.3578 167.798 24.5143 167.362 24.6512C166.928 24.7946 166.427 24.9206 165.862 25.0249C165.296 25.1292 164.73 25.2205 164.171 25.2943C163.612 25.3726 163.105 25.4377 162.658 25.4899C161.44 25.6398 160.408 25.8767 159.547 26.1917C158.686 26.5068 158.027 26.9457 157.567 27.4976C157.114 28.056 156.883 28.7622 156.883 29.6291C156.883 30.935 157.349 31.9432 158.284 32.6516C159.219 33.3643 160.389 33.7184 161.803 33.7184ZM161.466 35.9999C160.164 35.9999 158.979 35.7435 157.908 35.2329C156.829 34.7288 155.974 33.9944 155.344 33.0296C154.705 32.0649 154.39 30.8916 154.39 29.514C154.39 28.4515 154.586 27.5606 154.988 26.8327C155.389 26.1048 155.961 25.5073 156.697 25.0423C157.44 24.5773 158.308 24.2101 159.322 23.9407C160.328 23.6712 161.44 23.4626 162.658 23.3105C163.86 23.1606 164.881 23.0281 165.717 22.9172C166.559 22.8064 167.198 22.6283 167.632 22.3871C168.072 22.1437 168.29 21.757 168.29 21.2137V20.7162C168.29 19.2539 167.856 18.1001 166.982 17.2548C166.108 16.4161 164.858 15.9903 163.219 15.9903C161.667 15.9903 160.404 16.3314 159.43 17.0137C158.45 17.6959 157.766 18.4955 157.377 19.4146L155.009 18.5629C155.488 17.3896 156.166 16.4509 157.021 15.7491C157.883 15.0472 158.843 14.5366 159.91 14.2281C160.976 13.913 162.053 13.7631 163.146 13.7631C163.968 13.7631 164.83 13.8674 165.717 14.0847C166.611 14.2954 167.44 14.6692 168.21 15.1928C168.972 15.7165 169.598 16.4509 170.071 17.383C170.544 18.3217 170.788 19.5081 170.788 20.9443V35.5154H168.288V32.1192H168.137C167.841 32.7559 167.394 33.3708 166.809 33.9683C166.218 34.5593 165.482 35.0504 164.592 35.4306C163.703 35.8043 162.664 35.9999 161.466 35.9999ZM130.684 33.0101C132.065 33.0101 133.248 32.6755 134.228 32.0062C135.208 31.3435 135.958 30.3875 136.484 29.1337C137.005 27.8887 137.268 26.4003 137.268 24.6816C137.268 23.002 137.011 21.5136 136.499 20.2164C135.986 18.9192 135.243 17.8958 134.263 17.1419C133.289 16.3944 132.093 16.0207 130.686 16.0207C129.246 16.0207 128.028 16.4074 127.042 17.181C126.049 17.948 125.306 18.9909 124.799 20.3012C124.291 21.607 124.043 23.0694 124.043 24.6816C124.043 26.3199 124.3 27.7627 124.814 29.0164C125.327 30.268 126.077 31.2457 127.07 31.9541C128.061 32.6559 129.263 33.0101 130.684 33.0101ZM130.848 44.0003C129.382 44.0003 128.097 43.8156 126.994 43.4354C125.895 43.0616 124.963 42.5445 124.205 41.8948C123.449 41.2386 122.862 40.5107 122.443 39.6981L124.488 38.3596C124.796 38.8963 125.211 39.4286 125.731 39.9523C126.245 40.4694 126.921 40.904 127.763 41.2495C128.598 41.5906 129.624 41.7666 130.848 41.7666C132.756 41.7666 134.295 41.2886 135.465 40.3369C136.642 39.3852 137.227 37.9098 137.227 35.9108V31.0828H137.002C136.713 31.7324 136.292 32.38 135.752 33.0296C135.213 33.6728 134.502 34.216 133.628 34.6419C132.754 35.0678 131.674 35.285 130.386 35.285C128.669 35.285 127.143 34.8592 125.807 34.0139C124.479 33.1687 123.432 31.9541 122.67 30.3744C121.908 28.7948 121.526 26.9131 121.526 24.7229C121.526 22.5522 121.901 20.6445 122.644 18.9996C123.387 17.3461 124.427 16.0619 125.761 15.1363C127.096 14.2194 128.648 13.7587 130.424 13.7587C131.746 13.7587 132.838 13.9891 133.706 14.4475C134.574 14.906 135.271 15.4775 135.798 16.1597C136.331 16.842 136.745 17.5047 137.041 18.1457H137.292V14.0477H139.731V36.0673C139.731 37.8838 139.343 39.3787 138.568 40.552C137.79 41.7253 136.739 42.5988 135.405 43.1616C134.071 43.7178 132.553 44.0003 130.848 44.0003ZM104.452 27.3064V14.0477H106.952V35.5088H104.452V31.9476H104.255C103.754 33.0427 102.953 33.9618 101.861 34.6875C100.769 35.4219 99.4345 35.7891 97.8564 35.7891C96.4812 35.7891 95.2658 35.4871 94.1993 34.8852C93.1329 34.2877 92.2974 33.4034 91.6865 32.2365C91.082 31.0763 90.7798 29.6465 90.7798 27.9474V14.0477H93.2732V27.7974C93.2732 29.477 93.7654 30.8199 94.7606 31.8433C95.7472 32.8602 97.0231 33.3708 98.5688 33.3708C99.5424 33.3708 100.477 33.1404 101.378 32.6689C102.271 32.204 103.01 31.5217 103.588 30.6221C104.162 29.7247 104.452 28.6231 104.452 27.3064ZM74.3598 35.5088L65.6122 24.486L67.4084 22.7673L77.557 35.5088H74.3598ZM60.9492 35.5088V6.89258H63.4426V35.5088H60.9492ZM63.2181 27.4042L63.1922 24.1514H63.7513L73.8416 14.0477H76.9914L67.0262 23.995L66.8017 24.0406L63.2181 27.4042Z" fill="white"/>
<path fill-rule="evenodd" clip-rule="evenodd" d="M8.42804 7.98518L15.4636 14.9361L13.6286 19.3556L24.399 8.94122L34.9038 8.84127L8.4302 35.2108L8.42804 7.98518ZM17.6505 28.1035L23.0562 22.5866L34.8887 34.3765L23.978 34.3482L17.6505 28.1035ZM0 0H43.3297V43.196H0V0Z" fill="white"/>
</g>
<defs>
<clipPath id="clip0_817_5">
<rect width="226" height="44" fill="white"/>
</clipPath>
</defs>
</svg>
