<svg width="4394" height="1118" viewBox="0 0 4394 1118" fill="none" xmlns="http://www.w3.org/2000/svg">
<g clip-path="url(#clip0_89_22)">
<path d="M1144.84 0L1052.67 344.302L963.782 256.848L542.01 678.323L307.57 444.833L75.7935 676.516L0 600.573L307.7 293.19L542.01 525.711L886.592 181.446L800.423 91.6451L1144.84 0Z" fill="#9459FF"/>
<path d="M963.317 984.57H814.393V500.192L963.317 351.753V984.57Z" fill="#FEFEFE"/>
<path d="M497.92 984.57H308.036V539.737L497.92 729.119V984.57Z" fill="white"/>
<path d="M752.03 984.57H561.214V753.315L752.03 563.003V984.57Z" fill="white"/>
<path d="M244.741 984.57H75.3279V770.992L244.741 602.082V984.57Z" fill="white"/>
</g>
<path d="M1347.46 992.188C1319.51 992.188 1293.55 986.997 1269.59 976.614C1245.63 965.832 1225.27 951.256 1208.49 932.887C1191.72 914.518 1179.34 893.353 1171.36 869.393L1231.26 844.235C1242.04 871.789 1257.81 892.954 1278.58 907.729C1299.34 922.504 1323.3 929.892 1350.46 929.892C1366.43 929.892 1380.41 927.496 1392.39 922.704C1404.37 917.513 1413.55 910.325 1419.94 901.14C1426.73 891.955 1430.12 881.373 1430.12 869.393C1430.12 853.02 1425.53 840.042 1416.35 830.458C1407.16 820.874 1393.59 813.287 1375.62 807.696L1291.76 781.34C1258.21 770.957 1232.65 755.184 1215.08 734.019C1197.51 712.455 1188.73 687.297 1188.73 658.545C1188.73 633.387 1194.92 611.424 1207.3 592.655C1219.68 573.487 1236.65 558.512 1258.21 547.73C1280.17 536.948 1305.13 531.557 1333.09 531.557C1359.84 531.557 1384.2 536.349 1406.16 545.933C1428.13 555.118 1446.9 567.896 1462.47 584.269C1478.44 600.642 1490.02 619.61 1497.21 641.174L1438.51 666.931C1429.72 643.37 1415.95 625.201 1397.18 612.422C1378.81 599.643 1357.45 593.254 1333.09 593.254C1318.31 593.254 1305.33 595.85 1294.15 601.041C1282.97 605.833 1274.18 613.021 1267.8 622.605C1261.81 631.79 1258.81 642.572 1258.81 654.951C1258.81 669.327 1263.4 682.106 1272.59 693.287C1281.77 704.468 1295.75 712.854 1314.52 718.445L1392.39 743.004C1427.93 753.786 1454.68 769.36 1472.65 789.726C1490.62 809.693 1499.61 834.651 1499.61 864.601C1499.61 889.36 1493.02 911.323 1479.84 930.491C1467.06 949.659 1449.29 964.834 1426.53 976.015C1403.77 986.797 1377.41 992.188 1347.46 992.188ZM1543.01 985V929.293L1733.49 698.678L1744.28 722.039H1552V660.941H1804.18V716.049L1616.09 947.263L1605.31 923.303H1804.78V985H1543.01ZM1854.31 1104.8V660.941H1919.01V728.029L1911.22 712.455C1923.2 694.086 1939.17 679.71 1959.14 669.327C1979.11 658.944 2001.87 653.753 2027.43 653.753C2058.17 653.753 2085.73 661.141 2110.09 675.916C2134.85 690.691 2154.21 710.858 2168.19 736.415C2182.57 761.972 2189.75 790.724 2189.75 822.671C2189.75 854.618 2182.57 883.37 2168.19 908.927C2154.21 934.484 2135.05 954.85 2110.69 970.025C2086.33 984.8 2058.57 992.188 2027.43 992.188C2002.27 992.188 1979.31 986.997 1958.54 976.614C1938.17 966.231 1922.4 951.256 1911.22 931.689L1922 919.11V1104.8H1854.31ZM2020.84 929.293C2040 929.293 2056.98 924.701 2071.75 915.516C2086.53 906.331 2098.11 893.752 2106.49 877.779C2115.28 861.406 2119.67 843.037 2119.67 822.671C2119.67 802.305 2115.28 784.135 2106.49 768.162C2098.11 752.189 2086.53 739.61 2071.75 730.425C2056.98 721.24 2040 716.648 2020.84 716.648C2002.07 716.648 1985.1 721.24 1969.92 730.425C1955.15 739.61 1943.37 752.189 1934.58 768.162C1926.19 784.135 1922 802.305 1922 822.671C1922 843.037 1926.19 861.406 1934.58 877.779C1943.37 893.752 1955.15 906.331 1969.92 915.516C1985.1 924.701 2002.07 929.293 2020.84 929.293ZM2411.94 992.188C2380.79 992.188 2352.24 984.8 2326.28 970.025C2300.72 955.25 2280.36 935.083 2265.18 909.526C2250.01 883.969 2242.42 855.017 2242.42 822.671C2242.42 789.926 2250.01 760.974 2265.18 735.816C2280.36 710.259 2300.72 690.292 2326.28 675.916C2351.84 661.141 2380.39 653.753 2411.94 653.753C2443.88 653.753 2472.44 661.141 2497.59 675.916C2523.15 690.292 2543.32 710.259 2558.09 735.816C2573.27 760.974 2580.85 789.926 2580.85 822.671C2580.85 855.416 2573.27 884.568 2558.09 910.125C2542.92 935.682 2522.55 955.849 2496.99 970.624C2471.44 985 2443.08 992.188 2411.94 992.188ZM2411.94 929.293C2431.1 929.293 2448.08 924.701 2462.85 915.516C2477.63 906.331 2489.21 893.752 2497.59 877.779C2506.38 861.406 2510.77 843.037 2510.77 822.671C2510.77 802.305 2506.38 784.135 2497.59 768.162C2489.21 752.189 2477.63 739.61 2462.85 730.425C2448.08 721.24 2431.1 716.648 2411.94 716.648C2393.17 716.648 2376.2 721.24 2361.02 730.425C2346.25 739.61 2334.47 752.189 2325.68 768.162C2317.29 784.135 2313.1 802.305 2313.1 822.671C2313.1 843.037 2317.29 861.406 2325.68 877.779C2334.47 893.752 2346.25 906.331 2361.02 915.516C2376.2 924.701 2393.17 929.293 2411.94 929.293ZM2646.94 985V660.941H2711.63V724.435L2703.84 716.049C2711.83 695.683 2724.61 680.309 2742.18 669.926C2759.75 659.144 2780.11 653.753 2803.28 653.753C2827.24 653.753 2848.4 658.944 2866.77 669.327C2885.14 679.71 2899.51 694.086 2909.9 712.455C2920.28 730.824 2925.47 751.989 2925.47 775.949V985H2858.38V793.919C2858.38 777.546 2855.39 763.769 2849.4 752.588C2843.41 741.007 2834.82 732.222 2823.64 726.232C2812.86 719.843 2800.48 716.648 2786.5 716.648C2772.53 716.648 2759.95 719.843 2748.77 726.232C2737.98 732.222 2729.6 741.007 2723.61 752.588C2717.62 764.169 2714.62 777.946 2714.62 793.919V985H2646.94ZM3138.08 988.594C3104.14 988.594 3077.78 979.01 3059.01 959.842C3040.24 940.674 3030.86 913.719 3030.86 878.977V722.039H2973.95V660.941H2982.94C2998.11 660.941 3009.89 656.548 3018.28 647.763C3026.66 638.978 3030.86 626.998 3030.86 611.823V586.665H3098.54V660.941H3172.22V722.039H3098.54V875.982C3098.54 887.163 3100.34 896.747 3103.94 904.734C3107.53 912.321 3113.32 918.311 3121.31 922.704C3129.29 926.697 3139.68 928.694 3152.45 928.694C3155.65 928.694 3159.24 928.494 3163.24 928.095C3167.23 927.696 3171.02 927.296 3174.62 926.897V985C3169.03 985.799 3162.84 986.597 3156.05 987.396C3149.26 988.195 3143.27 988.594 3138.08 988.594ZM3247.26 985V538.745H3317.94V735.217H3524.6V538.745H3594.68V985H3524.6V798.112H3317.94V985H3247.26ZM3796.17 992.188C3771.81 992.188 3750.45 986.797 3732.08 976.015C3713.71 964.834 3699.33 949.459 3688.95 929.892C3678.96 909.925 3673.97 886.964 3673.97 861.007V660.941H3741.66V855.017C3741.66 869.792 3744.66 882.771 3750.65 893.952C3756.64 905.133 3765.02 913.919 3775.8 920.308C3786.59 926.298 3798.96 929.293 3812.94 929.293C3827.32 929.293 3839.9 926.098 3850.68 919.709C3861.46 913.32 3869.85 904.335 3875.84 892.754C3882.23 881.173 3885.42 867.596 3885.42 852.022V660.941H3952.51V985H3888.42V921.506L3895.6 929.892C3888.02 949.859 3875.44 965.233 3857.87 976.015C3840.3 986.797 3819.73 992.188 3796.17 992.188ZM4204.65 992.188C4179.49 992.188 4156.53 986.997 4135.76 976.614C4115.4 966.231 4099.63 951.256 4088.44 931.689L4096.23 919.11V985H4031.54V531.557H4099.23V728.029L4088.44 712.455C4100.42 694.086 4116.4 679.71 4136.36 669.327C4156.33 658.944 4179.09 653.753 4204.65 653.753C4235.4 653.753 4262.95 661.141 4287.31 675.916C4312.07 690.691 4331.44 710.858 4345.41 736.415C4359.79 761.972 4366.98 790.724 4366.98 822.671C4366.98 854.618 4359.79 883.37 4345.41 908.927C4331.44 934.484 4312.27 954.85 4287.91 970.025C4263.55 984.8 4235.8 992.188 4204.65 992.188ZM4198.06 929.293C4217.23 929.293 4234.2 924.701 4248.98 915.516C4263.75 906.331 4275.33 893.752 4283.72 877.779C4292.5 861.406 4296.9 843.037 4296.9 822.671C4296.9 802.305 4292.5 784.135 4283.72 768.162C4275.33 752.189 4263.75 739.61 4248.98 730.425C4234.2 721.24 4217.23 716.648 4198.06 716.648C4179.29 716.648 4162.32 721.24 4147.15 730.425C4132.37 739.61 4120.59 752.189 4111.8 768.162C4103.42 784.135 4099.23 802.305 4099.23 822.671C4099.23 843.037 4103.42 861.406 4111.8 877.779C4120.59 893.752 4132.37 906.331 4147.15 915.516C4162.32 924.701 4179.29 929.293 4198.06 929.293Z" fill="white"/>
<defs>
<clipPath id="clip0_89_22">
<rect width="1144.84" height="984.57" fill="white"/>
</clipPath>
</defs>
</svg>
